{"title":"After Earth (2013) BRRip 1080p {6CH} [Multi-Audio] [English-Hind","uid":9001532,"size":3104714420,"categoryP":"video","categoryS":"hd___movies","magnet":"?xt=urn:btih:1cb678d5d34e2a638c7d07300a5bd3a3120461d0&amp;dn=After+Earth+%282013%29+BRRip+1080p+%7B6CH%7D+%5BMulti-Audio%5D+%5BEnglish-Hind&amp;tr=udp%3A%2F%2Ftracker.openbittorrent.com%3A80&amp;tr=udp%3A%2F%2Fopen.demonii.com%3A1337&amp;tr=udp%3A%2F%2Ftracker.coppersurfer.tk%3A6969&amp;tr=udp%3A%2F%2Fexodus.desync.com%3A6969","seeders":1,"leechers":0,"uploader":"SaNRiM","files":-1,"time":1380949757,"description":"Storyline\n\nOne thousand years after cataclysmic events forced humanity's escape from Earth, Nova Prime has become mankind's new home. Legendary General Cypher Raige returns from an extended tour of duty to his estranged family, ready to be a father to his 13-year-old son, Kitai. When an asteroid storm damages Cypher and Kitai's craft, they crash-land on a now unfamiliar and dangerous Earth. As his father lies dying in the cockpit, Kitai must trek across the hostile terrain to recover their rescue beacon. His whole life, Kitai has wanted nothing more than to be a soldier like his father. Today, he gets his chance.\n\n\n\nTorrent Info\n\nGeneral\n\nUnique ID : 230600142958731411361467544062621892781 (0xAD7BF8D84BDB335298E5FB12EB4FC0AD)\nComplete name : After Earth (2013) BRRip 1080p {6CH} [Multi-Audio] [English-Hindi-Tamil-Telgu] ~SaNRiM~.mkv\nFormat : Matroska\nFormat version : Version 4 / Version 2\nFile size : 2.89 GiB\nDuration : 1h 40mn\nOverall bit rate : 4 137 Kbps\nEncoded date : UTC 2013-10-05 02:11:06\nWriting application : mkvmerge v6.4.1 ('Omega Point') built on Sep 16 2013 22:05:10\nWriting library : libebml v1.3.0 + libmatroska v1.4.1\n\n\nVideo\n\nID : 1\nFormat : AVC\nFormat/Info : Advanced Video Codec\nFormat profile : &lt;a class=&quot;__cf_email__&quot; href=&quot;/cdn-cgi/l/email-protection&quot; data-cfemail=&quot;81cce0e8efc1cdb5afb1&quot;&gt;[email&amp;#160;protected]&lt;/a&gt;&lt;script cf-hash='f9e31' type=&quot;text/javascript&quot;&gt;\n/* &lt;![CDATA[ */!function(){try{var t=&quot;currentScript&quot;in document?document.currentScript:function(){for(var t=document.getElementsByTagName(&quot;script&quot;),e=t.length;e--;)if(t[e].getAttribute(&quot;cf-hash&quot;))return t[e]}();if(t&amp;&amp;t.previousSibling){var e,r,n,i,c=t.previousSibling,a=c.getAttribute(&quot;data-cfemail&quot;);if(a){for(e=&quot;&quot;,r=parseInt(a.substr(0,2),16),n=2;a.length-n;n+=2)i=parseInt(a.substr(n,2),16)^r,e+=String.fromCharCode(i);e=document.createTextNode(e),c.parentNode.replaceChild(e,c)}}}catch(u){}}();/* ]]&gt; */&lt;/script&gt;\nFormat settings, CABAC : Yes\nFormat settings, ReFrames : 4 frames\nCodec ID : V_MPEG4/ISO/AVC\nDuration : 1h 40mn\nBit rate : 1 879 Kbps\nWidth : 1 920 pixels\nHeight : 800 pixels\nDisplay aspect ratio : 2.40:1\nFrame rate mode : Constant\nFrame rate : 23.976 fps\nColor space : YUV\nChroma subsampling : 4:2:0\nBit depth : 8 bits\nScan type : Progressive\nBits/(Pixel*Frame) : 0.051\nStream size : 1.31 GiB (45%)\nTitle : ~SaNRiM~\nWriting library : x264 core 130 r2273 b3065e6\nLanguage : English\nDefault : Yes\nForced : No\nColor primaries : BT.709\nTransfer characteristics : BT.709\nMatrix coefficients : BT.709\n\n\nAudio #1\n\nID : 2\nFormat : AC-3\nFormat/Info : Audio Coding 3\nMode extension : CM (complete main)\nFormat settings, Endianness : Big\nCodec ID : A_AC3\nDuration : 1h 40mn\nBit rate mode : Constant\nBit rate : 448 Kbps\nChannel(s) : 6 channels\nChannel positions : Front: L C R, Side: L R, LFE\nSampling rate : 48.0 KHz\nBit depth : 16 bits\nCompression mode : Lossy\nStream size : 321 MiB (11%)\nTitle : ~SaNRiM~\nLanguage : Hindi\nDefault : No\nForced : Yes\n\n\nAudio #2\n\nID : 3\nFormat : AC-3\nFormat/Info : Audio Coding 3\nMode extension : CM (complete main)\nFormat settings, Endianness : Big\nCodec ID : A_AC3\nDuration : 1h 40mn\nBit rate mode : Constant\nBit rate : 640 Kbps\nChannel(s) : 6 channels\nChannel positions : Front: L C R, Side: L R, LFE\nSampling rate : 48.0 KHz\nBit depth : 16 bits\nCompression mode : Lossy\nStream size : 458 MiB (15%)\nTitle : ~SaNRiM~\nLanguage : Tamil\nDefault : No\nForced : No\n\n\nAudio #3\n\nID : 4\nFormat : AC-3\nFormat/Info : Audio Coding 3\nMode extension : CM (complete main)\nFormat settings, Endianness : Big\nCodec ID : A_AC3\nDuration : 1h 40mn\nBit rate mode : Constant\nBit rate : 640 Kbps\nChannel(s) : 6 channels\nChannel positions : Front: L C R, Side: L R, LFE\nSampling rate : 48.0 KHz\nBit depth : 16 bits\nCompression mode : Lossy\nStream size : 458 MiB (15%)\nTitle : ~SaNRiM~\nLanguage : Telugu\nDefault : No\nForced : No\n\n\nAudio #4\n\nID : 5\nFormat : AC-3\nFormat/Info : Audio Coding 3\nMode extension : CM (complete main)\nFormat settings, Endianness : Big\nCodec ID : A_AC3\nDuration : 1h 40mn\nBit rate mode : Constant\nBit rate : 448 Kbps\nChannel(s) : 6 channels\nChannel positions : Front: L C R, Side: L R, LFE\nSampling rate : 48.0 KHz\nBit depth : 16 bits\nCompression mode : Lossy\nStream size : 321 MiB (11%)\nTitle : ~SaNRiM~\nLanguage : English\nDefault : No\nForced : No\n\n\n\nScreens &lt;a href=&quot;\nhttp://cdn.piczend.com/images/5UFSKeiO/1380940728_vlcsnap-2013-10-05-07h51m46s119.png&quot; rel=&quot;nofollow&quot; target=&quot;_NEW&quot;&gt;\nhttp://cdn.piczend.com/images/5UFSKeiO/1380940728_vlcsnap-2013-10-05-07h51m46s119.png&lt;/a&gt; &lt;a href=&quot;\nhttp://cdn.piczend.com/images/X14WFJth/1380940725_vlcsnap-2013-10-05-07h52m01s7.png&quot; rel=&quot;nofollow&quot; target=&quot;_NEW&quot;&gt;\nhttp://cdn.piczend.com/images/X14WFJth/1380940725_vlcsnap-2013-10-05-07h52m01s7.png&lt;/a&gt; &lt;a href=&quot;\nhttp://cdn.piczend.com/images/bmSTZwGh/1380940699_vlcsnap-2013-10-05-07h52m21s217.png&quot; rel=&quot;nofollow&quot; target=&quot;_NEW&quot;&gt;\nhttp://cdn.piczend.com/images/bmSTZwGh/1380940699_vlcsnap-2013-10-05-07h52m21s217.png&lt;/a&gt; &lt;a href=&quot;\nhttp://cdn.piczend.com/images/Q6ZdE0Ld/1380940693_vlcsnap-2013-10-05-07h52m25s2.png&quot; rel=&quot;nofollow&quot; target=&quot;_NEW&quot;&gt;\nhttp://cdn.piczend.com/images/Q6ZdE0Ld/1380940693_vlcsnap-2013-10-05-07h52m25s2.png&lt;/a&gt; &lt;a href=&quot;\nhttp://cdn.piczend.com/images/Z49UBab0/1380940702_vlcsnap-2013-10-05-07h52m28s30.png&quot; rel=&quot;nofollow&quot; target=&quot;_NEW&quot;&gt;\nhttp://cdn.piczend.com/images/Z49UBab0/1380940702_vlcsnap-2013-10-05-07h52m28s30.png&lt;/a&gt; &lt;a href=&quot;\nhttp://cdn.piczend.com/images/1HAARvfZ/1380940704_vlcsnap-2013-10-05-07h52m51s2.png&quot; rel=&quot;nofollow&quot; target=&quot;_NEW&quot;&gt;\nhttp://cdn.piczend.com/images/1HAARvfZ/1380940704_vlcsnap-2013-10-05-07h52m51s2.png&lt;/a&gt; &lt;a href=&quot;\nhttp://cdn.piczend.com/images/Yn1gum3W/1380940679_vlcsnap-2013-10-05-07h52m58s77.png&quot; rel=&quot;nofollow&quot; target=&quot;_NEW&quot;&gt;\nhttp://cdn.piczend.com/images/Yn1gum3W/1380940679_vlcsnap-2013-10-05-07h52m58s77.png&lt;/a&gt; &lt;a href=&quot;\nhttp://cdn.piczend.com/images/yvGpAOoj/1380940782_vlcsnap-2013-10-05-07h53m06s152.png&quot; rel=&quot;nofollow&quot; target=&quot;_NEW&quot;&gt;\nhttp://cdn.piczend.com/images/yvGpAOoj/1380940782_vlcsnap-2013-10-05-07h53m06s152.png&lt;/a&gt; &lt;a href=&quot;\nhttp://cdn.piczend.com/images/8YiXeZDV/1380940796_vlcsnap-2013-10-05-07h53m21s47.png&quot; rel=&quot;nofollow&quot; target=&quot;_NEW&quot;&gt;\nhttp://cdn.piczend.com/images/8YiXeZDV/1380940796_vlcsnap-2013-10-05-07h53m21s47.png&lt;/a&gt; &lt;a href=&quot;\nhttp://cdn.piczend.com/images/OO3m0z2L/1380940803_vlcsnap-2013-10-05-07h53m31s142.png&quot; rel=&quot;nofollow&quot; target=&quot;_NEW&quot;&gt;\nhttp://cdn.piczend.com/images/OO3m0z2L/1380940803_vlcsnap-2013-10-05-07h53m31s142.png&lt;/a&gt;\n\n                        If you like my work please comment\n                             Any request? Just PM me\n                         Please seed long after download\n                           Thank you &amp; enjoy the best\n                                   ~SaNRiM~","torrent":{"xt":"urn:btih:1cb678d5d34e2a638c7d07300a5bd3a3120461d0","amp;dn":"After+Earth+%282013%29+BRRip+1080p+%7B6CH%7D+%5BMulti-Audio%5D+%5BEnglish-Hind","amp;tr":["udp%3A%2F%2Ftracker.openbittorrent.com%3A80","udp%3A%2F%2Fopen.demonii.com%3A1337","udp%3A%2F%2Ftracker.coppersurfer.tk%3A6969","udp%3A%2F%2Fexodus.desync.com%3A6969"],"infoHash":"1cb678d5d34e2a638c7d07300a5bd3a3120461d0","infoHashBuffer":{"type":"Buffer","data":[28,182,120,213,211,78,42,99,140,125,7,48,10,91,211,163,18,4,97,208]},"announce":[],"urlList":[]}}